PathFileType	4	(X/Y/Z)	/Users/itak/Documents/Research/Walk-IL/dataset/trc/00175_00008.trc
DataRate	CameraRate	NumFrames	NumMarkers	Units	OrigDataRate	OrigDataStartFrame	OrigNumFrames
100.000000	100.000000	4	53	mm	100.000000	220	589
Frame#	Time	RPSI			LPSI			L3			STRN			T10			C7			CLAV			RBAK			LBAK			LSHO			LUPA			LAEL			LAOL			LWTS			LWPS			LFRA			LIFD			LHPS			LHTS			RSHO			RUPA			RAEL			RAOL			RWTS			RWPS			RFRA			RIFD			RHTS			RHPS			RBHD			LFHD			RFHD			LBHD			LHIP			RHIP			RASI			LASI			LKNE			LTHI			LANK			LTIP			LTOE			LMT1			LMT5			LHEE			RKNE			RTHI			RANK			RTIP			RTOE			RMT1			RMT5			RHEE			
		X1	Y1	Z1	X2	Y2	Z2	X3	Y3	Z3	X4	Y4	Z4	X5	Y5	Z5	X6	Y6	Z6	X7	Y7	Z7	X8	Y8	Z8	X9	Y9	Z9	X10	Y10	Z10	X11	Y11	Z11	X12	Y12	Z12	X13	Y13	Z13	X14	Y14	Z14	X15	Y15	Z15	X16	Y16	Z16	X17	Y17	Z17	X18	Y18	Z18	X19	Y19	Z19	X20	Y20	Z20	X21	Y21	Z21	X22	Y22	Z22	X23	Y23	Z23	X24	Y24	Z24	X25	Y25	Z25	X26	Y26	Z26	X27	Y27	Z27	X28	Y28	Z28	X29	Y29	Z29	X30	Y30	Z30	X31	Y31	Z31	X32	Y32	Z32	X33	Y33	Z33	X34	Y34	Z34	X35	Y35	Z35	X36	Y36	Z36	X37	Y37	Z37	X38	Y38	Z38	X39	Y39	Z39	X40	Y40	Z40	X41	Y41	Z41	X42	Y42	Z42	X43	Y43	Z43	X44	Y44	Z44	X45	Y45	Z45	X46	Y46	Z46	X47	Y47	Z47	X48	Y48	Z48	X49	Y49	Z49	X50	Y50	Z50	X51	Y51	Z51	X52	Y52	Z52	X53	Y53	Z53	

221	2.2	512.80322265625	1041.881469726562	272.7583312988281	493.1045227050781	1048.905395507812	151.352783203125	508.5553283691406	1082.8515625	213.2348937988281	783.5125122070312	1273.411987304688	160.9187927246094	487.7371215820312	1242.944091796875	209.3526153564453	570.148681640625	1506.823852539062	184.4492645263672	762.7435302734375	1388.967163085938	155.9197540283203	511.21533203125	1336.568359375	306.3872680664062	545.987548828125	1483.49169921875	86.18849182128906	609.4822998046875	1467.458251953125	-3.557803392410278	560.4754028320312	1336.973876953125	-70.34329223632812	567.568359375	1118.7041015625	-92.89810943603516	537.2645263671875	1100.482299804688	-12.00734424591064	711.71728515625	904.9848022460938	-85.17155456542969	627.3801879882812	869.9254150390625	-107.3780364990234	590.4873046875	1008.522094726562	-109.2991714477539	763.4436645507812	725.9055786132812	-74.71726226806641	660.78173828125	804.8663940429688	-109.0966873168945	730.5460205078125	830.046875	-109.2143020629883	662.63671875	1479.199829101562	353.4969482421875	653.6615600585938	1412.765747070312	426.0711975097656	651.303466796875	1121.693725585938	481.7287902832031	640.79638671875	1111.30322265625	386.2042236328125	829.6209106445312	926.696044921875	455.0139465332031	761.9296264648438	892.552734375	500.7083740234375	687.6519165039062	1052.874877929688	497.5472717285156	886.0105590820312	750.7186279296875	424.4423217773438	876.6975708007812	842.2141723632812	461.5392150878906	807.7388916015625	818.3609619140625	495.2723083496094	643.8794555664062	1660.923706054688	249.8356170654297	773.1966552734375	1704.202758789062	79.84259796142578	804.5801391601562	1711.076049804688	205.0050201416016	601.3789672851562	1661.497924804688	118.0336303710938	570.6218872070312	981.3271484375	16.39270973205566	681.6834716796875	991.6201782226562	368.0851745605469	753.8421020507812	1013.397583007812	298.5652160644531	703.6226806640625	1009.155700683594	43.40876007080078	559.5686645507812	480.8125610351562	44.80772399902344	571.6111450195312	625.2415771484375	19.72704887390137	333.8209533691406	56.90238189697266	86.26828765869141	450.4244079589844	272.0944213867188	52.38760375976562	549.1430053710938	40.78441619873047	76.24526214599609	510.6349182128906	45.25577545166016	130.75146484375	430.6317749023438	32.01994323730469	31.63122367858887	294.7008666992188	75.18614959716797	161.4128570556641	857.74755859375	532.2869262695312	337.4415283203125	786.3240356445312	788.3697509765625	366.6934204101562	883.0470581054688	45.42353439331055	354.8890686035156	901.7898559570312	418.56201171875	321.3494262695312	1101.800537109375	41.33199310302734	308.2087707519531	1044.191040039062	40.32259750366211	266.8934936523438	996.525146484375	36.99982070922852	383.4579772949219	829.6192016601562	50.48418426513672	290.7742004394531	
222	2.21	502.8388977050781	1042.730712890625	270.4963989257812	483.6368408203125	1049.776977539062	149.1258392333984	498.9762268066406	1083.75048828125	211.0201110839844	774.7815551757812	1273.518798828125	159.0654296875	478.8670959472656	1243.931640625	206.8265228271484	562.1063842773438	1507.43212890625	181.7704925537109	754.44873046875	1389.195922851562	153.8733978271484	502.7693481445312	1337.500366210938	303.7877807617188	538.2040405273438	1484.149780273438	83.42772674560547	601.9442138671875	1468.066284179688	-6.000790119171143	553.4747314453125	1337.7900390625	-73.35340118408203	561.4027709960938	1119.37841796875	-95.86170959472656	530.092529296875	1101.12158203125	-15.41933250427246	706.5887451171875	906.413330078125	-86.30156707763672	622.80078125	870.8792724609375	-109.5976333618164	585.0777587890625	1009.279235839844	-111.9574737548828	759.1538696289062	727.5748901367188	-74.82761383056641	656.5531616210938	805.961669921875	-110.7713088989258	726.1771850585938	831.48876953125	-109.9283447265625	654.2027587890625	1480.017944335938	351.0546264648438	644.9088745117188	1413.688354492188	423.6954345703125	640.9507446289062	1122.353149414062	478.3015747070312	631.4843139648438	1112.242919921875	382.6023559570312	819.119140625	926.88330078125	453.9827880859375	750.3890991210938	892.70166015625	498.1162109375	676.8550415039062	1053.37841796875	494.4627685546875	875.7081298828125	750.885009765625	423.7020568847656	865.8455810546875	842.1983642578125	461.113037109375	796.0670166015625	818.3632202148438	493.1972961425781	635.6103515625	1661.803833007812	246.26171875	766.6100463867188	1703.697998046875	77.13157653808594	796.8084716796875	1711.308959960938	202.5899963378906	594.303955078125	1661.548583984375	114.1068496704102	561.6531372070312	981.9625244140625	14.44058990478516	670.9536743164062	992.1087036132812	366.7207641601562	743.5210571289062	1013.966491699219	297.5479125976562	694.5133666992188	1009.558288574219	42.1365852355957	553.1942138671875	480.8363647460938	44.72615432739258	564.209228515625	625.3352661132812	18.97377777099609	333.09912109375	54.85812377929688	86.32123565673828	447.23388671875	270.7685241699219	52.57422256469727	548.874755859375	40.77628707885742	76.39533996582031	510.1991577148438	44.97186279296875	130.9757080078125	430.2969360351562	31.66851043701172	31.40237617492676	293.6248779296875	71.88746643066406	161.4432830810547	848.8583374023438	533.8104248046875	337.8860473632812	775.45556640625	789.3593139648438	366.4686584472656	880.919677734375	46.49905014038086	355.4288024902344	894.32666015625	420.6592712402344	322.208740234375	1099.11376953125	44.05655288696289	308.5265197753906	1041.7763671875	42.59978485107422	267.6367797851562	994.4273681640625	38.37784957885742	383.7041015625	827.4759521484375	51.77458953857422	291.1503295898438	
223	2.22	493.0001220703125	1043.557006835938	268.3233642578125	474.3028259277344	1050.581176757812	146.9612426757812	489.5356140136719	1084.614013671875	208.9036560058594	766.1381225585938	1273.700805664062	157.3000030517578	470.0996398925781	1244.89990234375	204.4851684570312	554.0675659179688	1508.057983398438	179.3033752441406	746.1845703125	1389.47802734375	151.9408721923828	494.4008178710938	1338.414672851562	301.3841247558594	530.3931884765625	1484.83642578125	80.88021087646484	594.34521484375	1468.73095703125	-8.251206398010254	546.3866577148438	1338.681884765625	-76.16981506347656	555.1309204101562	1120.149658203125	-98.73798370361328	522.85986328125	1101.846801757812	-18.74177360534668	701.2380981445312	907.873046875	-87.36800384521484	618.0220947265625	871.9486694335938	-111.8528594970703	579.5366821289062	1010.155029296875	-114.5674667358398	754.4572143554688	729.2128295898438	-74.81925201416016	652.0680541992188	807.1412353515625	-112.4597702026367	721.5467529296875	832.9383544921875	-110.5600814819336	645.8472290039062	1480.834838867188	348.7707214355469	636.2603759765625	1414.6171875	421.4783020019531	630.7201538085938	1123.065307617188	475.2396240234375	622.108642578125	1113.221435546875	379.40087890625	808.5713500976562	927.0595703125	452.9258728027344	738.9384155273438	892.8687133789062	495.6817932128906	666.1854858398438	1053.921630859375	491.6634826660156	865.2332763671875	751.0354614257812	422.7583618164062	854.9378662109375	842.1646728515625	460.5188903808594	784.460693359375	818.3663940429688	491.1449584960938	627.390869140625	1662.758056640625	242.8035430908203	759.8197021484375	1703.207885742188	74.36178588867188	789.0108642578125	1711.657470703125	200.0436096191406	587.1141967773438	1661.574584960938	110.3557891845703	552.8341674804688	982.5745239257812	12.54644870758057	660.3817749023438	992.654541015625	365.4628295898438	733.3430786132812	1014.586730957031	296.6353454589844	685.5665283203125	1009.982971191406	40.97335052490234	547.223876953125	480.8552551269531	44.59503173828125	557.1574096679688	625.4296264648438	18.20541191101074	332.4931640625	53.03800201416016	86.39885711669922	444.3026123046875	269.5339660644531	52.74739456176758	548.6270141601562	40.76553726196289	76.55365753173828	509.8410949707031	44.68003463745117	131.2404632568359	430.0528869628906	31.42671394348145	31.22940063476562	292.7059936523438	68.87308502197266	161.4665985107422	840.4485473632812	535.3800048828125	338.2410583496094	764.9019775390625	790.41845703125	366.3561096191406	877.4017333984375	47.53610992431641	356.2098083496094	886.9364013671875	422.5637817382812	322.9630432128906	1095.092895507812	47.58422088623047	309.0198059082031	1037.954833984375	45.39454650878906	268.5051879882812	990.9378051757812	40.28903961181641	384.1781311035156	823.8594970703125	52.62366485595703	291.8060607910156	
224	2.23	483.3172912597656	1044.327026367188	266.2473754882812	465.1317749023438	1051.291137695312	144.8696441650391	480.2580871582031	1085.41455078125	206.8881072998047	757.586181640625	1273.93310546875	155.6409149169922	461.4295654296875	1245.843505859375	202.3276977539062	546.0515747070312	1508.699951171875	177.052001953125	737.9609375	1389.786987304688	150.1327819824219	486.086669921875	1339.314575195312	299.1821594238281	522.5681762695312	1485.536010742188	78.54352569580078	586.69970703125	1469.407836914062	-10.31681060791016	539.1959838867188	1339.584716796875	-78.76856994628906	548.7210083007812	1120.956298828125	-101.5196533203125	515.5584106445312	1102.591674804688	-21.96098518371582	695.6663208007812	909.3280639648438	-88.38449859619141	613.0432739257812	873.0776977539062	-114.1383514404297	573.8427124023438	1011.088806152344	-117.1230926513672	749.4071655273438	730.8052978515625	-74.75692749023438	647.3424072265625	808.3623657226562	-114.1763687133789	716.662841796875	834.37744140625	-111.1456527709961	637.5819091796875	1481.622802734375	346.6622619628906	627.724365234375	1415.512451171875	419.4308166503906	620.6451416015625	1123.786865234375	472.5604553222656	612.6881713867188	1114.185913085938	376.6147155761719	798.021240234375	927.1962890625	451.8187255859375	727.6558227539062	893.0376586914062	493.45654296875	655.6815185546875	1054.468872070312	489.1690368652344	854.6007080078125	751.1331787109375	421.5803833007812	844.0252075195312	842.0895385742188	459.7089233398438	773.0014038085938	818.3558349609375	489.1528930664062	619.2371215820312	1663.756958007812	239.4950866699219	752.8099975585938	1702.744873046875	71.56015014648438	781.2003784179688	1712.114868164062	197.3832244873047	579.8048706054688	1661.578125	106.8210220336914	544.18994140625	983.1382446289062	10.70916843414307	650.0225219726562	993.245849609375	364.314697265625	723.3563232421875	1015.238525390625	295.8231811523438	676.7946166992188	1010.415649414062	39.91086196899414	541.618408203125	480.8819274902344	44.48240661621094	550.4328002929688	625.520263671875	17.48941612243652	331.9976501464844	51.41184997558594	86.59371185302734	441.5789184570312	268.3931884765625	52.98572158813477	548.4103393554688	40.75023651123047	76.70952606201172	509.5827941894531	44.37721252441406	131.5488891601562	429.8767395019531	31.29930305480957	31.15675354003906	291.96337890625	66.11125946044922	161.6094970703125	832.5794677734375	536.983154296875	338.4583740234375	754.7944946289062	791.5595092773438	366.3155212402344	872.2139282226562	48.50396728515625	357.2446594238281	879.5936889648438	424.2289428710938	323.5674438476562	1089.473876953125	51.81675338745117	309.7543334960938	1032.468872070312	48.58770751953125	269.5369873046875	985.783935546875	42.71453475952148	384.9422607421875	818.4993286132812	52.9448127746582	292.764892578125	
